<mxfile host="app.diagrams.net" modified="2023-06-08T22:43:17.980Z" agent="Mozilla/5.0 (Windows NT 10.0; Win64; x64) AppleWebKit/537.36 (KHTML, like Gecko) Chrome/112.0.0.0 YaBrowser/23.5.1.714 Yowser/2.5 Safari/537.36" etag="PhSqrWoxoCL_x-a9bl-G" version="21.3.7" type="github">
  <diagram name="Страница 1" id="VrcitafpxaAPomnRYo9F">
    <mxGraphModel dx="1050" dy="1712" grid="1" gridSize="10" guides="1" tooltips="1" connect="1" arrows="1" fold="1" page="1" pageScale="1" pageWidth="827" pageHeight="1169" math="0" shadow="0">
      <root>
        <mxCell id="0" />
        <mxCell id="1" parent="0" />
        <mxCell id="OGxs55p692Yt4NLGhU1h-1" value="Единая база данных" style="strokeWidth=2;html=1;shape=mxgraph.flowchart.database;whiteSpace=wrap;" vertex="1" parent="1">
          <mxGeometry x="290" y="200" width="100" height="120" as="geometry" />
        </mxCell>
        <mxCell id="OGxs55p692Yt4NLGhU1h-2" value="Системы обеспечения" style="rounded=1;whiteSpace=wrap;html=1;absoluteArcSize=1;arcSize=14;strokeWidth=2;" vertex="1" parent="1">
          <mxGeometry x="80" y="85" width="100" height="350" as="geometry" />
        </mxCell>
        <mxCell id="OGxs55p692Yt4NLGhU1h-3" value="" style="rounded=1;whiteSpace=wrap;html=1;absoluteArcSize=1;arcSize=14;strokeWidth=2;fillColor=none;" vertex="1" parent="1">
          <mxGeometry x="250" y="90" width="550" height="310" as="geometry" />
        </mxCell>
        <mxCell id="OGxs55p692Yt4NLGhU1h-4" value="Разработка" style="rounded=1;whiteSpace=wrap;html=1;absoluteArcSize=1;arcSize=14;strokeWidth=2;" vertex="1" parent="1">
          <mxGeometry x="440" y="140" width="190" height="40" as="geometry" />
        </mxCell>
        <mxCell id="OGxs55p692Yt4NLGhU1h-5" value="Конструирование" style="rounded=1;whiteSpace=wrap;html=1;absoluteArcSize=1;arcSize=14;strokeWidth=2;" vertex="1" parent="1">
          <mxGeometry x="440" y="230" width="190" height="35" as="geometry" />
        </mxCell>
        <mxCell id="OGxs55p692Yt4NLGhU1h-6" value="Производство" style="rounded=1;whiteSpace=wrap;html=1;absoluteArcSize=1;arcSize=14;strokeWidth=2;" vertex="1" parent="1">
          <mxGeometry x="440" y="320" width="190" height="35" as="geometry" />
        </mxCell>
        <mxCell id="OGxs55p692Yt4NLGhU1h-7" value="Система планирования, координации и контроля работ по проектам" style="rounded=1;whiteSpace=wrap;html=1;absoluteArcSize=1;arcSize=14;strokeWidth=2;" vertex="1" parent="1">
          <mxGeometry x="670" y="140" width="100" height="240" as="geometry" />
        </mxCell>
        <mxCell id="OGxs55p692Yt4NLGhU1h-8" value="Сбыт и сервисное обслуживание продукции (1с предприятие)" style="rounded=1;whiteSpace=wrap;html=1;absoluteArcSize=1;arcSize=14;strokeWidth=2;" vertex="1" parent="1">
          <mxGeometry x="90" y="470" width="730" height="60" as="geometry" />
        </mxCell>
        <mxCell id="OGxs55p692Yt4NLGhU1h-9" value="Планирование и экономика (1с предприятие)" style="rounded=1;whiteSpace=wrap;html=1;absoluteArcSize=1;arcSize=14;strokeWidth=2;" vertex="1" parent="1">
          <mxGeometry x="90" y="-20" width="730" height="60" as="geometry" />
        </mxCell>
        <mxCell id="OGxs55p692Yt4NLGhU1h-11" value="" style="endArrow=block;startArrow=block;endFill=1;startFill=1;html=1;rounded=0;entryX=0.077;entryY=1.043;entryDx=0;entryDy=0;entryPerimeter=0;" edge="1" parent="1" source="OGxs55p692Yt4NLGhU1h-2" target="OGxs55p692Yt4NLGhU1h-9">
          <mxGeometry width="160" relative="1" as="geometry">
            <mxPoint x="330" y="250" as="sourcePoint" />
            <mxPoint x="490" y="250" as="targetPoint" />
          </mxGeometry>
        </mxCell>
        <mxCell id="OGxs55p692Yt4NLGhU1h-12" value="" style="endArrow=block;startArrow=block;endFill=1;startFill=1;html=1;rounded=0;entryX=0.077;entryY=1.043;entryDx=0;entryDy=0;entryPerimeter=0;exitX=0.099;exitY=-0.057;exitDx=0;exitDy=0;exitPerimeter=0;" edge="1" parent="1" source="OGxs55p692Yt4NLGhU1h-8">
          <mxGeometry width="160" relative="1" as="geometry">
            <mxPoint x="160" y="460" as="sourcePoint" />
            <mxPoint x="163" y="435" as="targetPoint" />
          </mxGeometry>
        </mxCell>
        <mxCell id="OGxs55p692Yt4NLGhU1h-13" value="" style="endArrow=block;startArrow=block;endFill=1;startFill=1;html=1;rounded=0;entryX=0.996;entryY=0.382;entryDx=0;entryDy=0;entryPerimeter=0;exitX=-0.006;exitY=0.358;exitDx=0;exitDy=0;exitPerimeter=0;" edge="1" parent="1" source="OGxs55p692Yt4NLGhU1h-3" target="OGxs55p692Yt4NLGhU1h-2">
          <mxGeometry width="160" relative="1" as="geometry">
            <mxPoint x="210" y="230" as="sourcePoint" />
            <mxPoint x="213" y="188" as="targetPoint" />
          </mxGeometry>
        </mxCell>
        <mxCell id="OGxs55p692Yt4NLGhU1h-14" value="" style="endArrow=block;startArrow=block;endFill=1;startFill=1;html=1;rounded=0;entryX=0.41;entryY=0.99;entryDx=0;entryDy=0;entryPerimeter=0;" edge="1" parent="1" target="OGxs55p692Yt4NLGhU1h-9">
          <mxGeometry width="160" relative="1" as="geometry">
            <mxPoint x="338.5" y="200" as="sourcePoint" />
            <mxPoint x="341.5" y="158" as="targetPoint" />
          </mxGeometry>
        </mxCell>
        <mxCell id="OGxs55p692Yt4NLGhU1h-15" value="" style="endArrow=block;startArrow=block;endFill=1;startFill=1;html=1;rounded=0;entryX=0.077;entryY=1.043;entryDx=0;entryDy=0;entryPerimeter=0;exitX=0.5;exitY=0;exitDx=0;exitDy=0;" edge="1" parent="1" source="OGxs55p692Yt4NLGhU1h-8">
          <mxGeometry width="160" relative="1" as="geometry">
            <mxPoint x="340" y="358.5" as="sourcePoint" />
            <mxPoint x="343" y="316.5" as="targetPoint" />
          </mxGeometry>
        </mxCell>
        <mxCell id="OGxs55p692Yt4NLGhU1h-16" value="" style="endArrow=block;startArrow=block;endFill=1;startFill=1;html=1;rounded=0;entryX=0.077;entryY=1.043;entryDx=0;entryDy=0;entryPerimeter=0;exitX=0.461;exitY=-0.097;exitDx=0;exitDy=0;exitPerimeter=0;" edge="1" parent="1" source="OGxs55p692Yt4NLGhU1h-5">
          <mxGeometry width="160" relative="1" as="geometry">
            <mxPoint x="523.5" y="222" as="sourcePoint" />
            <mxPoint x="526.5" y="180" as="targetPoint" />
          </mxGeometry>
        </mxCell>
        <mxCell id="OGxs55p692Yt4NLGhU1h-17" value="" style="endArrow=block;startArrow=block;endFill=1;startFill=1;html=1;rounded=0;entryX=0.077;entryY=1.043;entryDx=0;entryDy=0;entryPerimeter=0;exitX=0.5;exitY=0;exitDx=0;exitDy=0;" edge="1" parent="1" source="OGxs55p692Yt4NLGhU1h-6">
          <mxGeometry width="160" relative="1" as="geometry">
            <mxPoint x="530" y="310" as="sourcePoint" />
            <mxPoint x="533" y="265" as="targetPoint" />
          </mxGeometry>
        </mxCell>
        <mxCell id="OGxs55p692Yt4NLGhU1h-18" value="" style="endArrow=block;startArrow=block;endFill=1;startFill=1;html=1;rounded=0;entryX=0;entryY=0.5;entryDx=0;entryDy=0;" edge="1" parent="1" target="OGxs55p692Yt4NLGhU1h-4">
          <mxGeometry width="160" relative="1" as="geometry">
            <mxPoint x="390" y="242" as="sourcePoint" />
            <mxPoint x="393" y="200" as="targetPoint" />
          </mxGeometry>
        </mxCell>
        <mxCell id="OGxs55p692Yt4NLGhU1h-19" value="" style="endArrow=block;startArrow=block;endFill=1;startFill=1;html=1;rounded=0;entryX=0;entryY=0.5;entryDx=0;entryDy=0;" edge="1" parent="1" target="OGxs55p692Yt4NLGhU1h-5">
          <mxGeometry width="160" relative="1" as="geometry">
            <mxPoint x="390" y="257" as="sourcePoint" />
            <mxPoint x="426" y="250" as="targetPoint" />
          </mxGeometry>
        </mxCell>
        <mxCell id="OGxs55p692Yt4NLGhU1h-22" value="" style="endArrow=block;startArrow=block;endFill=1;startFill=1;html=1;rounded=0;entryX=0;entryY=0.5;entryDx=0;entryDy=0;" edge="1" parent="1" target="OGxs55p692Yt4NLGhU1h-6">
          <mxGeometry width="160" relative="1" as="geometry">
            <mxPoint x="390" y="290" as="sourcePoint" />
            <mxPoint x="580" y="318" as="targetPoint" />
          </mxGeometry>
        </mxCell>
        <mxCell id="OGxs55p692Yt4NLGhU1h-23" value="" style="endArrow=block;startArrow=block;endFill=1;startFill=1;html=1;rounded=0;" edge="1" parent="1">
          <mxGeometry width="160" relative="1" as="geometry">
            <mxPoint x="630" y="340" as="sourcePoint" />
            <mxPoint x="670" y="340" as="targetPoint" />
          </mxGeometry>
        </mxCell>
        <mxCell id="OGxs55p692Yt4NLGhU1h-24" value="" style="endArrow=block;startArrow=block;endFill=1;startFill=1;html=1;rounded=0;" edge="1" parent="1">
          <mxGeometry width="160" relative="1" as="geometry">
            <mxPoint x="630" y="247" as="sourcePoint" />
            <mxPoint x="670" y="247" as="targetPoint" />
          </mxGeometry>
        </mxCell>
        <mxCell id="OGxs55p692Yt4NLGhU1h-25" value="" style="endArrow=block;startArrow=block;endFill=1;startFill=1;html=1;rounded=0;" edge="1" parent="1">
          <mxGeometry width="160" relative="1" as="geometry">
            <mxPoint x="630" y="159.5" as="sourcePoint" />
            <mxPoint x="670" y="159.5" as="targetPoint" />
          </mxGeometry>
        </mxCell>
        <mxCell id="OGxs55p692Yt4NLGhU1h-26" value="Разработка-конструирование-производство" style="text;html=1;strokeColor=none;fillColor=none;align=center;verticalAlign=middle;whiteSpace=wrap;rounded=0;" vertex="1" parent="1">
          <mxGeometry x="370" y="100" width="390" height="30" as="geometry" />
        </mxCell>
      </root>
    </mxGraphModel>
  </diagram>
</mxfile>
